<?xml version="1.0" encoding="UTF-8"?>
<svg id="_160229_FH_P_solo_K.eps" data-name="160229_FH;P_solo_K.eps" xmlns="http://www.w3.org/2000/svg" width="30.5mm" height="12.14mm" viewBox="0 0 86.46 34.42">
  <defs>
    <style>
      .cls-1 {
        fill: #231f20;
      }
    </style>
  </defs>
  <g>
    <path class="cls-1" d="M58.47,25.36c0,3.69-.84,6.45-4.18,9.06l-3.62-3.06c1.9-1.78,2.5-3.16,2.55-5.34h-2.9s0-8.23,0-8.23h8.14v7.57Z"/>
    <rect class="cls-1" x="50.37" y="4.09" width="8.09" height="8.23"/>
  </g>
  <polygon class="cls-1" points="0 26.02 0 0 19.57 0 19.57 6.19 7.85 6.19 7.85 10.76 18.69 10.76 18.69 16.95 7.85 16.95 7.85 26.02 0 26.02"/>
  <path class="cls-1" d="M37.81,26.02v-10.17h-7.59v10.17h-8.04V0h8.04v9.14h7.59V0h8.07v26.02h-8.07Z"/>
  <path class="cls-1" d="M63.05,26.02V0h11.13c5.12,0,7.33.55,8.88,1.58,2.29,1.51,3.39,3.98,3.39,7.22,0,2.99-1.18,5.6-3.28,7.15-1.81,1.29-4.16,1.92-8.22,1.92h-3.94v8.14h-7.96ZM74.07,11.79c1.55,0,2.69-.22,3.32-.74.59-.48.81-1.22.81-2.06s-.22-1.55-.81-2.06c-.59-.55-1.55-.74-3.21-.74h-3.21v5.6h3.1Z"/>
</svg>